<?xml version="1.0" encoding="UTF-8"?>
<!DOCTYPE svg PUBLIC "-//W3C//DTD SVG 1.1//EN" "http://www.w3.org/Graphics/SVG/1.1/DTD/svg11.dtd">
<!-- Creator: CorelDRAW -->
<svg xmlns="http://www.w3.org/2000/svg" xml:space="preserve" width="941px" height="1069px" version="1.1" style="shape-rendering:geometricPrecision; text-rendering:geometricPrecision; image-rendering:optimizeQuality; fill-rule:evenodd; clip-rule:evenodd"
viewBox="0 0 1006.17 1143.19"
 xmlns:xlink="http://www.w3.org/1999/xlink"
 xmlns:xodm="http://www.corel.com/coreldraw/odm/2003">
 <defs>
  <style type="text/css">
   <![CDATA[
    .fil0 {fill:#FEFEFE}
   ]]>
  </style>
 </defs>
 <g id="Camada_x0020_1">
  <metadata id="CorelCorpID_0Corel-Layer"/>
  <path class="fil0" d="M565.81 976.69c-9.48,-16.35 -17.03,-44.76 -21.5,-65.85l364.62 -0.06 -21.05 64.65c-22.65,3.05 -72.68,6.75 -90.98,-5.78 -55.44,-37.97 -87.91,-34.43 -142.26,-0.1 -20.16,12.73 -60.46,7.14 -88.83,7.14zm-76.96 -653.73c49.04,3.88 17.59,-38.36 15.1,-67.49 -1.49,-17.4 12.72,-67.83 18.19,-86.92 20.82,-72.58 28.67,-128.05 78.58,-132.62 60.09,-5.51 146.69,-0.14 209.8,-0.35 93.44,-0.32 84.19,20.71 110.33,101.46 36.6,113.04 53,245.89 51.44,373.26 -1.05,85.31 -23.38,296.13 -54.8,366.02l-376.16 0.08c19.28,-156.91 26.56,-260.29 4.09,-417.99 -11.52,-80.89 -7.7,-103.65 -43.23,-95.68 -8.46,25.05 8.49,85.5 12.66,118.08 25.24,197.59 8.89,404.94 -61.57,590.36 -17.42,45.86 -41.7,38.71 -97.38,38.64 -251.07,-0.33 -235.41,29.46 -279.04,-128.94 -43.5,-157.93 -53.34,-324.72 -33.54,-488.43 6.15,-50.9 26.56,-181.59 45.15,-223.34l383.44 0.9 16.94 52.96zm-370.79 -153.01c22.73,-3 72.66,-6.74 91.03,5.77 55.9,38.03 87.68,34.56 142.24,0.13 20.2,-12.75 60.49,-7.14 88.84,-7.14 9.9,17.32 16.75,43.89 21.45,67.65l-364.6 -1.72 21.04 -64.69zm105.1 -72.99c0.02,-0.19 12.05,-11.05 2.3,-21.75 -8.13,-8.91 -12.03,-6.88 -25.56,-6.88 -88.39,0 -87.75,7.94 -114.5,91.25 -14.77,46 -28.02,91.17 -39.7,138.37 -24.3,98.2 -40.86,200.29 -44.68,305.78 -6.1,168.22 15.06,310.92 68.76,464.59 17.46,49.95 36.4,74.87 96.69,74.87l220.63 0c110.77,0 101.58,-91.88 131.53,-167.06 0.43,-1.08 1.02,-2.4 1.44,-3.36l3.52 -6.47c0.28,-1.82 1.21,-2.19 1.93,-3.21 14.85,62.06 24.88,113.98 93.35,113.98 51.66,0.26 74.27,4.44 122.05,-4.18l-0.52 -25.1c-72.42,-24.33 -151.63,30.1 -163.36,-37.57 26.71,0 69.67,6.73 90.03,-6.05 18.99,-11.92 25.67,-28.84 63.22,-27.07 36.8,1.73 42.86,22.33 60.53,29.92 17.57,7.54 62.94,2.44 85.1,3.94 -9.15,37.21 -27.62,32.34 -65.69,32.43 -49,0.11 -42.83,33.68 -4.16,33.68 88.26,0 87.74,-8.09 114.46,-91.28 79.38,-247.12 115.65,-513.55 55.93,-770.52 -11.22,-48.3 -24.9,-94.1 -40.3,-138.17 -17.48,-50.08 -36.26,-74.89 -98.9,-74.89 -296.59,0 -294.29,-32.66 -345.68,153.24 -1.25,4.52 -2.62,9.91 -4.2,13.86l-6.97 13.09c-14.41,-62.02 -25.19,-114.07 -93.31,-114.07 -51.6,-0.26 -74.27,-4.4 -122.08,4.14l0.54 25.12c26.32,8.88 68,4.24 99.31,4.08 42.2,-0.22 57.19,-6.13 64.05,33.51 -26.69,0 -69.69,-6.74 -90.07,6.02 -20.1,12.59 -23.37,28.95 -63.2,27.07 -36.83,-1.75 -42.84,-22.31 -60.5,-29.89 -17.59,-7.54 -62.94,-2.44 -85.11,-3.94 13.71,-55.79 55.66,-17.87 93.12,-37.48z"/>
  <path class="fil0" d="M296.53 753.63c0,-53.62 -0.93,-97.22 28.3,-131.87 24.9,-29.52 60.73,-45.5 104.87,-55.39 0,121.23 -25.15,159.25 -133.17,187.26zm-35.12 0.24c-95.6,-30.6 -143.04,-63.91 -130.46,-187.72 90.98,24.35 149.02,69.44 130.46,187.72zm-160.97 -226.84c-23.18,73.73 -2.68,197.62 97.27,239.51 81.14,34.02 82.59,36.48 167.69,-1.58 26.35,-11.78 47.52,-26.29 63.48,-47.87 30.29,-40.94 48.24,-131.38 30.32,-189.59 -23.74,-6.01 -80.78,18.5 -105.3,29.91 -44.72,20.82 -45.84,37.77 -73.77,69.05 -28.96,-25.86 -25.76,-45.74 -74.18,-68.73 -24.49,-11.63 -81.11,-35.86 -105.51,-30.7z"/>
  <path class="fil0" d="M725.84 336.97c25.38,22.72 62.93,84.57 76.4,128.16 48.96,158.5 -199.52,161.53 -152.08,0.54 10.68,-36.27 54.09,-111.2 75.68,-128.7zm-13.46 -32.92c-31.18,17.66 -90.26,121.95 -99.55,173.53 -14.81,82.31 48.14,152.3 130.9,140.82 73.96,-10.27 115.15,-83.66 89.24,-166.26 -8.88,-28.32 -75.64,-173.55 -120.59,-148.09z"/>
 </g>
</svg>
