<?xml version="1.0" encoding="UTF-8"?>
<!DOCTYPE svg PUBLIC "-//W3C//DTD SVG 1.1//EN" "http://www.w3.org/Graphics/SVG/1.1/DTD/svg11.dtd">
<!-- Creator: CorelDRAW -->
<svg xmlns="http://www.w3.org/2000/svg" xml:space="preserve" width="1048px" height="1064px" version="1.1" style="shape-rendering:geometricPrecision; text-rendering:geometricPrecision; image-rendering:optimizeQuality; fill-rule:evenodd; clip-rule:evenodd"
viewBox="0 0 956.96 971.84"
 xmlns:xlink="http://www.w3.org/1999/xlink"
 xmlns:xodm="http://www.corel.com/coreldraw/odm/2003">
 <defs>
  <style type="text/css">
   <![CDATA[
    .fil0 {fill:#FEFEFE}
   ]]>
  </style>
 </defs>
 <g id="Camada_x0020_1">
  <metadata id="CorelCorpID_0Corel-Layer"/>
  <path class="fil0" d="M690.54 890.15c-25.66,-8.42 -49.64,-15.54 -75.1,-23.78l-57.7 -18.37c-10.92,-3.96 -7.79,-1.84 -15.41,-8.24 34.34,-11.86 69.68,-31.4 103.25,-45.91 22.98,-9.94 277.22,-135.74 281.1,-151.99 -3.29,-48.9 -127.52,-81.43 -143.16,-30.44 6.14,9.39 2.62,16.24 20.12,13.46 4.9,-0.77 59.07,-22.58 81.62,10.4 -117.69,62.98 -183.19,99.15 -304.57,154.61 -72.17,32.99 -49.77,30.42 -121.33,30.88 -47.54,0.31 -58.75,-14.23 -115.72,-40.38l-205.72 -98.48c-28.94,-13.53 -26.37,-13.65 -62.81,-13.44 -22.78,0.13 -54.24,-2.21 -74.13,3.51l1.5 23.46c44.81,13.94 76.43,-10.19 127.96,16.7l285.9 136.28c20.83,6.65 41.16,-0.6 65.59,6.96 58.49,18.1 365.86,121.2 376.35,116.3 24.81,-26.21 15.01,-71.26 -7.57,-93.28 -14.36,-14.01 -63.49,-36.47 -88.14,-28.84 -10.93,52.96 81.09,13.64 79.26,87.21 -24.46,-1.82 -120.21,-36.43 -151.29,-46.62z"/>
  <path class="fil0" d="M668.69 40.01c25.62,21.8 95.81,123.2 117.55,164.62 39.2,74.66 53.3,141.79 -8.52,203.77 -88.69,88.92 -229.33,44.31 -257.18,-71.57 -13.51,-56.23 20.19,-90.51 12.59,-118.68 -19.71,-4.9 -23.3,-1.63 -31.11,17.27 -5.13,12.45 -10.77,29.16 -13.6,43.55 -15.69,79.97 40.9,174.04 130.25,199.88 126.97,36.72 253.7,-77.28 230.05,-200.21 -15.39,-79.98 -148.78,-264.55 -172.15,-276.78 -19.09,-9.99 -35.68,22.36 -56.2,47.55 -8.46,10.38 -44.75,56.23 -48.98,66.07 -6.6,15.37 3.69,32.23 21.01,20.79 7.79,-5.16 51.04,-74.54 76.29,-96.26z"/>
  <path class="fil0" d="M230.77 550.21c-10.53,34.77 21.55,25.35 53.94,34.4 24.86,6.94 46.86,14.9 70.37,24.57 148.9,61.3 92.75,68.31 212.47,46.17 58.9,-10.89 125.63,-115.37 183.08,-91.63 -19.12,19.81 -37.94,41.05 -60.99,60.94 -92.95,80.22 -67.65,71.09 -156.81,90.74 -62.76,13.83 -83.21,9.74 -73.73,40.92 21.84,6.65 150.41,-24.85 161.76,-32.94 23.2,-16.51 169.39,-145.86 169.36,-161.43 -6.47,-21.45 -36.58,-36.13 -67.88,-33.57 -28.78,2.36 -47.43,21.46 -64.7,33.91 -64,46.12 -66.28,57.92 -129.18,68.45 -50.74,8.5 -35.16,8.08 -76.78,-11.62 -48.52,-22.96 -174.34,-83.29 -220.91,-68.91z"/>
  <path class="fil0" d="M876.47 712.06c-27.95,-3.14 -46.71,-2.59 -44.51,26.34 24.66,12.62 57.17,-8.16 82.74,25.22 -25.06,18.74 -221.86,44.11 -245.84,65.33l3.22 18.79c23.86,7.05 198.66,-39.74 237.04,-49.1 18.19,-4.44 47.18,-5.05 47.83,-23.44 0.69,-19.66 -37.94,-58.37 -80.48,-63.14z"/>
  <path class="fil0" d="M483.18 604.93c6.26,-26.17 -13.83,-31.82 -32.27,-45.86 -17.14,-13.04 -31.87,-25.66 -49.78,-37.8 -13.63,-9.23 -105.12,-62.9 -124.09,-42.46 -25.23,27.19 43.38,25.07 100,62.76 42.38,28.21 78.53,71.9 106.14,63.36z"/>
  <path class="fil0" d="M2.49 528c24.62,7.55 65.67,-14.49 93.92,-21.02 40.36,-9.33 108.09,-8.63 81.73,-36.17 -16.98,-17.73 -123.05,16.08 -150.27,24.86 -22.86,7.36 -32.97,7.48 -25.38,32.33z"/>
  <path class="fil0" d="M763.95 291.78c-3.18,3.37 -7.04,46.93 -25.4,69.84 -8.78,10.96 -21.66,15.22 -23.2,26.27 -6.6,47.19 76.58,-9.98 75.01,-81.13 -0.38,-16.98 -13.39,-28.8 -26.41,-14.98z"/>
  <path class="fil0" d="M218.91 493.35c18.09,1.66 23.56,-1.09 23.72,-18.92 -16.32,-21.27 -37.36,-6.05 -23.72,18.92z"/>
  <path class="fil0" d="M656.97 421.47l23.43 1.46 1.49 -24.91c-23.78,-6.77 -31.7,1.14 -24.92,23.45z"/>
  <path class="fil0" d="M536.25 185.18c20.25,13.51 35.76,-1.7 22.17,-22.1 -18.36,-1.55 -23.76,3.72 -22.17,22.1z"/>
 </g>
</svg>
