<?xml version="1.0" encoding="UTF-8"?>
<!DOCTYPE svg PUBLIC "-//W3C//DTD SVG 1.1//EN" "http://www.w3.org/Graphics/SVG/1.1/DTD/svg11.dtd">
<!-- Creator: CorelDRAW -->
<svg xmlns="http://www.w3.org/2000/svg" xml:space="preserve" width="1042px" height="967px" version="1.1" style="shape-rendering:geometricPrecision; text-rendering:geometricPrecision; image-rendering:optimizeQuality; fill-rule:evenodd; clip-rule:evenodd"
viewBox="0 0 946.91 879.44"
 xmlns:xlink="http://www.w3.org/1999/xlink"
 xmlns:xodm="http://www.corel.com/coreldraw/odm/2003">
 <defs>
  <style type="text/css">
   <![CDATA[
    .fil0 {fill:#FEFEFE}
   ]]>
  </style>
 </defs>
 <g id="Camada_x0020_1">
  <metadata id="CorelCorpID_0Corel-Layer"/>
  <path class="fil0" d="M62.83 3.2c-26.31,12.73 -85.38,124.5 -53.75,215.77 21.89,63.16 88.82,123.82 179.68,100.16 71.16,-18.53 222.74,-159.31 290.5,-24.75 42.48,84.37 -56.37,142.97 -23.68,228.12 12.82,33.39 50.9,60.37 92.87,35.12 28.58,-17.2 33.89,-68.55 55.3,-88.61 46.2,-43.32 112.89,47.43 33.54,162.34 -39.05,56.55 -68.61,-9.46 -102.01,19.22 -28.1,24.13 6.37,85.13 20.53,105.01 41.16,57.74 97.22,98.6 168.48,119.72 40.33,11.95 25.81,0.79 64.22,-70.02 66.78,-123.1 160.93,-275.33 158.35,-417.71 -1.76,-97.16 -38.84,-152.05 -82.06,-206.18 -76.35,-95.61 -266.01,-174.91 -406.92,-169.62 -163.5,6.14 -241.17,124 -339.24,74.99 -64.73,-32.35 -16.59,-102.53 -55.81,-83.56z"/>
  <path class="fil0" d="M243.36 747.43c38.56,-21.36 79.87,76.55 48.92,96.19 -37.84,24.01 -89.37,-73.79 -48.92,-96.19zm-168.82 -1.67c51.91,-16.43 30.18,84.62 -8.67,99.02 -53.38,19.78 -39.02,-83.93 8.67,-99.02zm53.82 -6.05c-20.02,-16.54 -47.79,-51.87 -98.98,3.49 -24.12,26.08 -41.05,84.08 -12.95,116.19 34.75,39.72 80.43,5.91 99.48,-22.19 12.17,-17.96 42.26,-85.16 48.9,-106.53 0.82,0.73 1.95,0.82 2.31,2.36l12.97 23.39c3.98,9.74 7.11,15.66 11.83,25.88 8.41,18.2 16.5,38.96 25.68,53.92 16.39,26.69 70.39,64.64 101.76,22.64 26.47,-35.44 7.63,-88.37 -12.82,-115.45 -8.76,-11.61 -28.56,-27.11 -50.18,-28.77 -31.7,-2.44 -34.56,14.06 -52.2,26.65 -13.57,-44.15 -28.68,-33.79 -6.79,-80.2 12.47,-26.43 22.78,-49.62 34.17,-75.7 11.98,-27.39 69.93,-139.1 60.08,-152.16 -17.86,-23.68 -33.02,20.51 -38.79,33.25 -9.2,20.3 -75.03,175.63 -87.68,187.45 -14.63,-44.07 -67.61,-149.32 -91.28,-204.21 -17.52,-40.62 -45.96,-26.64 -25.96,14.46 21.85,44.89 42.35,92.46 62.46,138.47 10.39,23.78 20.15,44.21 30.93,67.48 9.85,21.27 11.82,33.2 -12.94,69.58z"/>
 </g>
</svg>
