<?xml version="1.0" encoding="UTF-8"?>
<!DOCTYPE svg PUBLIC "-//W3C//DTD SVG 1.1//EN" "http://www.w3.org/Graphics/SVG/1.1/DTD/svg11.dtd">
<!-- Creator: CorelDRAW -->
<svg xmlns="http://www.w3.org/2000/svg" xml:space="preserve" width="1063px" height="812px" version="1.1" style="shape-rendering:geometricPrecision; text-rendering:geometricPrecision; image-rendering:optimizeQuality; fill-rule:evenodd; clip-rule:evenodd"
viewBox="0 0 822.72 628.91"
 xmlns:xlink="http://www.w3.org/1999/xlink"
 xmlns:xodm="http://www.corel.com/coreldraw/odm/2003">
 <defs>
  <style type="text/css">
   <![CDATA[
    .fil0 {fill:#FEFEFE}
   ]]>
  </style>
 </defs>
 <g id="Camada_x0020_1">
  <metadata id="CorelCorpID_0Corel-Layer"/>
  <g id="_2079601273776">
   <path class="fil0" d="M0.51 127.65c1.87,10.8 32.67,97.52 38.34,109.18 16.85,34.74 57.22,49.68 102.39,32.45 71.7,-27.35 145.27,-53.23 217.19,-79.55 124.67,-45.63 238.43,-53.75 364.42,8.23 15.29,7.52 33.72,18.33 46.8,27.31 12.49,8.57 35.01,29.91 50.78,6.94 20.43,-29.76 -95.71,-232.34 -353.16,-232.21 -87,0.04 -268.58,53 -368.89,77.93 -56.46,14.03 -103.83,15.31 -97.87,49.72z"/>
   <path class="fil0" d="M677.77 450.18c7.75,-10.69 69.73,-51.72 87.07,-66.83 19.26,-16.79 8.94,-45.94 -16.58,-43.3 -13.19,1.36 -35.24,21.11 -45.81,29.2 -54.03,41.38 -112.25,87.04 -200.58,105.98 -98.39,21.09 -180.51,4.93 -260.96,-31.02 -34.74,-15.52 -67.69,-37.36 -102.95,-51.92 -25.34,-10.47 -48.19,5.56 -37.16,30.32 4.53,10.16 33.99,22.07 46.1,28.41 -8.6,16.93 -51.05,65.61 -40.58,83.96 25.25,20.58 34.36,14.36 50.94,-10.94 11.34,-17.3 22.31,-33.8 33.53,-49.87l75.15 34.07c-4.38,27.44 -34.69,91.07 -0.89,99.57 33,8.3 36.84,-36.21 47.82,-86.12l74.91 11.22c2.28,30.36 -12.66,95.95 24.67,96 37.72,0.04 21.77,-65.54 24.85,-95.69l75.53 -10.61c3.13,18.76 8.82,37.66 13.24,56 4.19,17.34 10.41,36.96 33.06,31.27 35.04,-8.8 4.23,-71.02 0.06,-101.98 30.57,-6.83 51.84,-23.59 75.8,-31.09 9.65,9.43 25.91,37.05 33.91,49.18 16.35,24.8 25.42,28.8 49.93,9.48 4.49,-33.21 -29.83,-60.62 -41.06,-85.29z"/>
  </g>
 </g>
</svg>
